<?xml version="1.0" encoding="utf-8"?>
<!-- Generator: Adobe Illustrator 24.3.0, SVG Export Plug-In . SVG Version: 6.00 Build 0)  -->
<svg version="1.1" id="Layer_1" xmlns="http://www.w3.org/2000/svg" xmlns:xlink="http://www.w3.org/1999/xlink" x="0px" y="0px"
	 viewBox="0 0 1080 1080" style="enable-background:new 0 0 1080 1080;" xml:space="preserve">
<g>
	<path d="M709,372.1v429.7c0,38.2-31,69.2-69.2,69.2V577.9h-75.6v25.2c0,19.1-15.5,34.6-34.6,34.6c-19.1,0-34.6-15.5-34.6-34.6v-151
		c11.1,1.6,22.5,2.4,34,2.4c11.9,0,23.7-0.9,35.2-2.6v65.9h75.6v-90.7C666.2,413.2,689.7,394.5,709,372.1z"/>
	<path d="M557.6,718v17.2c0,14.2-11.5,25.7-25.7,25.7h-4v40.7c0,38.2-31,69.2-69.2,69.2H418c-38.2,0-69.2-31-69.2-69.2V372.2
		c19.4,22.3,42.8,41,69.2,54.9v374.5h40.7v-82.2c0-15.4,12.5-27.8,27.8-27.8h44.8C545.9,691.6,557.7,703.4,557.6,718z"/>
	<path d="M708.9,293.9v25.8c-16.8,29.3-40.7,54.1-69.2,72.1v-90.2h-75.6v119.3c-11.4,2-23.2,3-35.2,3c-11.6,0-22.9-1-34-2.8V301.6
		H418v90.2c-28.5-18-52.3-42.8-69.2-72.1v-25.8c0-38.2,31-69.2,69.2-69.2h221.8c19.2,0,36.5,7.8,49,20.3S709,274.8,708.9,293.9z"/>
</g>
</svg>
