<?xml version="1.0" encoding="utf-8"?>
<!-- Generator: Adobe Illustrator 24.3.0, SVG Export Plug-In . SVG Version: 6.00 Build 0)  -->
<svg version="1.1" id="Layer_1" xmlns="http://www.w3.org/2000/svg" xmlns:xlink="http://www.w3.org/1999/xlink" x="0px" y="0px"
	 viewBox="0 0 1080 1080" style="enable-background:new 0 0 1080 1080;" xml:space="preserve">
<style type="text/css">
	.st0{display:none;}
	.st1{display:inline;}
	.st2{display:inline;fill:none;stroke:#000000;stroke-width:60;stroke-miterlimit:10;}
	.st3{fill:#092327;}
</style>
<g class="st0">
	<path class="st1" d="M418,224.7v167.2c-28.5-18-52.3-42.8-69.2-72.1v-25.8C348.8,255.7,379.8,224.7,418,224.7z"/>
	<path class="st1" d="M418,427.1v443.7c-38.2,0-69.2-31-69.2-69.2V372.1C368.2,394.5,391.6,413.2,418,427.1z"/>
	<path class="st1" d="M564.2,224.7v196.2c-11.5,2-23.2,3-35.2,3c-11.6,0-22.9-1-34-2.8V224.7H564.2z"/>
	<path class="st1" d="M564.2,451.8V603c0,19.1-15.5,34.6-34.6,34.6h0c-19.1,0-34.6-15.5-34.6-34.6V452c11.1,1.6,22.4,2.4,34,2.4
		C540.9,454.4,552.7,453.5,564.2,451.8z"/>
	<path class="st1" d="M709,293.9v25.8c-16.9,29.3-40.7,54.1-69.2,72.1V224.7c19.1,0,36.4,7.8,49,20.3
		C701.3,257.5,709,274.8,709,293.9z"/>
	<path class="st1" d="M709,372.1v429.4c0,38.2-31,69.2-69.2,69.2V427.1C666.2,413.2,689.7,394.5,709,372.1z"/>
	<path class="st1" d="M709,293.9v7.7H348.8v-7.7c0-38.2,31-69.2,69.2-69.2h221.8c19.1,0,36.4,7.8,49,20.3
		C701.3,257.5,709,274.8,709,293.9z"/>
	<polyline class="st2" points="674.4,547.7 639.8,547.7 564.2,547.7 529.6,547.7 	"/>
	<path class="st1" d="M528,801.6c0,38.2-31,69.2-69.2,69.2H418v-69.2H528z"/>
	<path class="st1" d="M528,691.6v110h-69.2v-82.2c0-15.3,12.4-27.8,27.8-27.8H528z"/>
	<path class="st1" d="M532,760.9l-4.9,0l0-69.2l4.2,0c14.6,0,26.4,11.8,26.4,26.4l0,17.2C557.7,749.4,546.2,760.9,532,760.9z"/>
</g>
<g>
	<path class="st3" d="M639.8,427.1v90.7h-75.6v-65.9c-11.5,1.7-23.3,2.6-35.2,2.6c-11.5,0-22.9-0.8-34-2.4v151
		c0,19.1,15.5,34.6,34.6,34.6h0c19.1,0,34.6-15.5,34.6-34.6v-25.2h75.6v293.1c38.2,0,69.2-31,69.2-69.2V372.1
		C689.7,394.5,666.2,413.2,639.8,427.1z"/>
	<path class="st3" d="M688.8,245c-12.5-12.5-29.8-20.3-49-20.3h-75.6h-69.2H418c-38.2,0-69.2,31-69.2,69.2v7.7v18.1
		c16.9,29.3,40.7,54.1,69.2,72.1v-90.2h76.9v119.5c11.1,1.8,22.4,2.8,34,2.8c12,0,23.8-1,35.2-3V301.6h75.6v90.2
		c28.5-18,52.4-42.8,69.2-72.1v-18.1v-7.7C709,274.8,701.3,257.5,688.8,245z"/>
	<path class="st3" d="M531.3,691.6l-3.3,0v0h-41.5c-15.3,0-27.8,12.4-27.8,27.8v82.2H418V427.1c-26.4-13.9-49.8-32.6-69.2-54.9
		v429.4c0,38.2,31,69.2,69.2,69.2h40.7c38.2,0,69.2-31,69.2-69.2v-40.7l4,0c14.2,0,25.7-11.5,25.7-25.7l0-17.2
		C557.7,703.4,545.9,691.6,531.3,691.6z"/>
</g>
</svg>
