<?xml version="1.0" encoding="utf-8"?>
<!-- Generator: Adobe Illustrator 24.3.0, SVG Export Plug-In . SVG Version: 6.00 Build 0)  -->
<svg version="1.1" id="Layer_1" xmlns="http://www.w3.org/2000/svg" xmlns:xlink="http://www.w3.org/1999/xlink" x="0px" y="0px"
	 viewBox="0 0 1080 1080" style="enable-background:new 0 0 1080 1080; fill: #284B63;" xml:space="preserve">
<path d="M991.6,598.9c8.1-1.7,15.4,5.2,14.1,13.4c-11.1,71.5-38.3,137.7-78,194.7c-84.6,121.8-225.5,201.5-385,201.5
	c-258.6,0-468.2-209.5-468.6-468c-0.3-255.1,205.4-464.7,460.5-469c225.7-3.8,415.7,152,464.5,362c3.7,16-7,31.9-23.3,34.3
	l-43.4,6.5c-14.5,2.2-28.2-7.2-31.6-21.5c-15.7-65.1-49-124.7-97.6-173.3c-69.7-69.7-164.9-108.6-263.5-107.9
	c-97.3,0.8-188.7,39-257.5,107.9C212.6,349.1,174.3,441.6,174.3,540c0,98.4,38.3,190.9,107.9,260.5c69,69,160.5,107.2,257.9,107.9
	c96.8,0.7,190.3-36.9,259.6-104.5c19.9-19.4,37.3-40.6,52.1-63.3l-71.8-62.7c-12.7-11.1-7.7-31.9,8.7-35.9l114.2-24.2L991.6,598.9z"
	/>
</svg>
