<?xml version="1.0" encoding="utf-8"?>
<!-- Generator: Adobe Illustrator 24.3.0, SVG Export Plug-In . SVG Version: 6.00 Build 0)  -->
<svg version="1.1" id="Layer_1" xmlns="http://www.w3.org/2000/svg" xmlns:xlink="http://www.w3.org/1999/xlink" x="0px" y="0px"
	 viewBox="0 0 1080 1080" style="enable-background:new 0 0 1080 1080; fill: #284B63;" xml:space="preserve">
<g>
	<path d="M850.6,388.7c-18-1.4-33.7,12.1-35,30.1l-33.4,439.7c-2.7,35.1-31.9,62.1-67,62.1h-92H461.9h-92c-35.2,0-64.4-27.1-67-62.1
		l-33.4-439.7c-1.4-18-17-31.4-35-30.1h0c-18,1.4-31.4,17-30.1,35l34.4,452.4c4.7,62,56.4,109.8,118.5,109.8h104.7h161.2h104.7
		c62.1,0,113.8-47.9,118.5-109.8l34.4-452.4C882.1,405.8,868.6,390.1,850.6,388.7L850.6,388.7z"/>
	<g>
		<path d="M888.5,239.4H735.8l-18.2-80.6v0c-8.6-37.8-42.2-64.7-80.9-64.7H444.3c-38.8,0-72.4,26.9-80.9,64.7l-0.4,1.7l-17.8,78.9
			c0,0-153.6,0-153.6,0c-17.8,0-31.1,16.1-31.1,33.2c0,18.3,13.9,33.2,31.1,33.2h696.9c17.2,0,31.1-14.8,31.1-33.2
			S905.6,239.4,888.5,239.4z M417.9,239.4l13-57.5c2.8-12.5,14-21.4,26.8-21.4h165.5c12.8,0,24,8.9,26.8,21.4l13,57.5H417.9z"/>
	</g>
</g>
</svg>
